<?xml version="1.0" encoding="UTF-8"?>
<svg width="41px" height="51px" viewBox="0 0 41 51" version="1.1" xmlns="http://www.w3.org/2000/svg" xmlns:xlink="http://www.w3.org/1999/xlink">
    <!-- Generator: Sketch 48.2 (47327) - http://www.bohemiancoding.com/sketch -->
    <title>Group 3</title>
    <desc>Created with Sketch.</desc>
    <defs></defs>
    <g id="Artboard" stroke="none" stroke-width="1" fill="none" fill-rule="evenodd" transform="translate(-20.000000, -120.000000)">
        <g id="Group-3" transform="translate(20.000000, 120.000000)" fill="#FFFFFF">
            <path d="M20.1453,2.0596 C20.1793,2.0596 20.2143,2.0616 20.2483,2.0646 L20.1733,2.0266 L20.1073,2.0596 C20.1203,2.0596 20.1323,2.0596 20.1453,2.0596 Z M2.0003,11.1446 C2.0003,11.1446 2.0013,11.1456 2.0013,11.1466 C2.0013,11.1456 2.0003,11.1446 2.0003,11.1446 Z M2.0013,11.1476 L2.0013,11.1486 L2.0013,11.1476 Z M37.3313,12.0576 C37.4953,12.0576 37.6593,12.0986 37.8093,12.1796 C37.9963,12.2806 38.1423,12.4376 38.2313,12.6226 L38.2313,11.3436 L37.3693,10.8986 C37.4303,11.0196 37.4663,11.1536 37.4733,11.2936 C37.4893,11.5886 37.3733,11.8726 37.1633,12.0716 C37.2183,12.0626 37.2743,12.0576 37.3313,12.0576 Z M2.0113,11.3536 L2.0113,12.6236 C2.1013,12.4376 2.2473,12.2816 2.4353,12.1796 C2.6343,12.0716 2.8603,12.0356 3.0773,12.0716 C2.8673,11.8726 2.7513,11.5886 2.7673,11.2926 C2.7743,11.1556 2.8093,11.0226 2.8683,10.9036 L2.0123,11.3426 C2.0123,11.3466 2.0113,11.3506 2.0113,11.3536 Z M5.7703,11.4526 L20.1223,20.7406 L34.4723,11.4516 L20.1453,4.1806 L5.7703,11.4526 Z M19.9063,22.9086 C20.0053,23.0176 20.0783,23.1476 20.1213,23.2886 C20.1643,23.1476 20.2373,23.0176 20.3363,22.9096 C20.1943,22.9396 20.0483,22.9396 19.9063,22.9086 Z M37.3313,38.0716 L37.3403,38.0716 L37.3313,38.0716 Z M38.2313,38.5066 C38.2193,38.5316 38.2063,38.5566 38.1923,38.5806 L38.2313,38.5066 Z M2.0113,38.5576 L2.0513,38.5806 C2.0373,38.5566 2.0233,38.5316 2.0113,38.5056 L2.0113,38.5576 Z M3.9123,37.4856 L18.1653,45.4626 L18.1653,24.1236 L3.9123,14.8966 L3.9123,37.4856 Z M22.0783,24.1236 L22.0783,45.4626 L36.3313,37.4856 L36.3313,14.8966 L22.0783,24.1236 Z M20.1993,48.8186 C20.1923,48.8216 20.1843,48.8256 20.1753,48.8306 C20.1793,48.8296 20.1823,48.8276 20.1853,48.8266 L20.1993,48.8186 Z M20.1083,48.8476 C20.1133,48.8496 20.1183,48.8516 20.1223,48.8536 C20.1253,48.8516 20.1283,48.8506 20.1313,48.8486 C20.1493,48.8396 20.1793,48.8266 20.2053,48.8146 L21.5453,48.0526 C21.2403,48.2146 20.8723,48.2076 20.5723,48.0316 C20.3523,47.9026 20.1933,47.6966 20.1213,47.4596 C20.0493,47.6966 19.8903,47.9026 19.6703,48.0316 C19.3833,48.1986 19.0323,48.2126 18.7363,48.0726 L20.0593,48.8246 C20.0763,48.8316 20.0933,48.8406 20.1083,48.8476 Z M20.1273,50.8656 L20.1153,50.8656 C20.0503,50.8656 19.9393,50.8536 19.8763,50.8416 C19.8213,50.8386 19.7263,50.8256 19.6313,50.8006 C19.5193,50.7716 19.4053,50.7256 19.2913,50.6726 C19.2433,50.6566 19.2463,50.6566 19.2113,50.6366 C19.1653,50.6166 19.1113,50.5886 19.0523,50.5506 L0.9513,40.2556 C0.3443,39.8646 0.0113,39.2526 0.0113,38.5886 L0.0113,11.3106 C0.0113,11.2916 0.0123,11.2716 0.0133,11.2526 C0.0193,11.1186 0.0383,11.0046 0.0623,10.8936 C0.0683,10.8346 0.0673,10.8436 0.0833,10.7866 C0.1303,10.6226 0.1963,10.4676 0.2813,10.3226 C0.3113,10.2716 0.3653,10.1976 0.4033,10.1526 C0.4213,10.1176 0.4993,10.0156 0.5923,9.9246 C0.6303,9.8866 0.7133,9.8186 0.7573,9.7876 C0.8103,9.7396 0.8843,9.6826 0.9673,9.6326 L19.2043,0.2476 C19.7663,-0.0874 20.5303,-0.0874 21.1443,0.2786 L39.1433,9.5636 C39.1803,9.5806 39.2163,9.5986 39.2493,9.6186 C39.2753,9.6346 39.3063,9.6546 39.3343,9.6756 C39.8973,10.0376 40.2313,10.6446 40.2313,11.3106 L40.2313,38.5886 C40.2313,39.2526 39.8983,39.8646 39.3413,40.2256 L21.1393,50.5816 C21.1153,50.5956 21.0793,50.6136 21.0443,50.6296 C20.9933,50.6586 20.9453,50.6786 20.9063,50.6926 C20.7963,50.7416 20.6993,50.7786 20.5973,50.8036 C20.5213,50.8246 20.4223,50.8386 20.3223,50.8476 C20.2883,50.8566 20.2083,50.8656 20.1273,50.8656 Z" id="Fill-3" fill-opacity="0.600000024"></path>
            <path d="M20.1604,2.0596 C20.1944,2.0596 20.2294,2.0616 20.2634,2.0646 L20.1884,2.0266 L20.1224,2.0596 C20.1354,2.0596 20.1474,2.0596 20.1604,2.0596 Z M2.0544,11.3296 L2.9554,11.9116 C2.8334,11.7326 2.7704,11.5166 2.7824,11.2926 C2.7894,11.1556 2.8244,11.0226 2.8834,10.9036 L2.0544,11.3296 Z M37.6244,38.0776 C37.6934,38.2336 37.7224,38.4066 37.7054,38.5806 C37.6934,38.7006 37.6604,38.8146 37.6104,38.9196 L38.2104,38.5786 L37.6244,38.0776 Z M20.0844,48.8226 C20.1054,48.8326 20.1254,48.8436 20.1434,48.8536 C20.1734,48.8356 20.2014,48.8226 20.2304,48.8096 L20.2974,48.7716 C20.1974,48.7876 20.0954,48.7866 19.9954,48.7716 L20.0844,48.8226 Z M20.2594,49.2936 L20.5254,49.7786 L20.2704,49.1726 L20.2524,49.2656 L20.2594,49.2936 Z M20.1434,50.8656 C20.1184,50.8656 20.0914,50.8646 20.0634,50.8626 C19.9134,50.8556 19.7704,50.8336 19.6314,50.7946 C19.5874,50.7836 19.4984,50.7506 19.4564,50.7336 C19.3814,50.7066 19.2904,50.6666 19.1994,50.6176 C19.1534,50.5946 19.1084,50.5696 19.0704,50.5446 L0.9334,40.1906 C-0.0166,39.5756 -0.2736,38.3656 0.3114,37.4636 C0.8964,36.5606 2.1074,36.3036 3.0094,36.8906 L20.1464,46.6346 L34.9714,38.3126 L18.9684,24.6306 L0.9174,12.9476 C0.3464,12.5776 0.0144,11.9516 0.0274,11.2726 C0.0404,10.5916 0.3974,9.9786 0.9834,9.6326 L19.2194,0.2476 C19.7824,-0.0874 20.5454,-0.0874 21.1594,0.2786 L39.2354,9.6066 C40.2114,10.1856 40.5164,11.3846 39.9674,12.3086 C39.7004,12.7566 39.2754,13.0736 38.7714,13.2026 C38.2654,13.3316 37.7404,13.2546 37.2934,12.9876 L20.1574,4.1826 L5.7854,11.4526 L21.1974,21.4266 C21.2724,21.4756 21.3424,21.5286 21.4074,21.5836 L39.5464,37.0916 C39.6664,37.1876 39.7924,37.3246 39.8984,37.4776 C39.9094,37.4936 39.9474,37.5526 39.9604,37.5726 C40.2004,37.9656 40.2934,38.4316 40.2224,38.8866 C40.2094,38.9716 40.1924,39.0526 40.1684,39.1316 C40.0404,39.5776 39.7544,39.9646 39.3654,40.2196 C39.3414,40.2356 39.3174,40.2496 39.2934,40.2626 L21.1544,50.5816 C21.1344,50.5926 21.1124,50.6046 21.0884,50.6166 C21.0024,50.6636 20.9044,50.7066 20.8014,50.7436 C20.7804,50.7506 20.6834,50.7876 20.6624,50.7936 C20.5114,50.8336 20.3654,50.8566 20.2204,50.8626 C20.1944,50.8646 20.1684,50.8656 20.1434,50.8656 Z" id="Fill-7"></path>
        </g>
    </g>
</svg>