<?xml version="1.0" encoding="UTF-8"?>
<svg width="212px" height="51px" viewBox="0 0 212 51" version="1.1" xmlns="http://www.w3.org/2000/svg" xmlns:xlink="http://www.w3.org/1999/xlink">
    <!-- Generator: Sketch 48.2 (47327) - http://www.bohemiancoding.com/sketch -->
    <title>Logo</title>
    <desc>Created with Sketch.</desc>
    <defs></defs>
    <g id="Artboard" stroke="none" stroke-width="1" fill="none" fill-rule="evenodd" transform="translate(-45.000000, -14.000000)">
        <g id="Logo" transform="translate(45.000000, 14.000000)">
            <g id="bm">
                <path d="M20.1453,2.0596 C20.1793,2.0596 20.2143,2.0616 20.2483,2.0646 L20.1733,2.0266 L20.1073,2.0596 C20.1203,2.0596 20.1323,2.0596 20.1453,2.0596 Z M2.0003,11.1446 C2.0003,11.1446 2.0013,11.1456 2.0013,11.1466 C2.0013,11.1456 2.0003,11.1446 2.0003,11.1446 Z M2.0013,11.1476 L2.0013,11.1486 L2.0013,11.1476 Z M37.3313,12.0576 C37.4953,12.0576 37.6593,12.0986 37.8093,12.1796 C37.9963,12.2806 38.1423,12.4376 38.2313,12.6226 L38.2313,11.3436 L37.3693,10.8986 C37.4303,11.0196 37.4663,11.1536 37.4733,11.2936 C37.4893,11.5886 37.3733,11.8726 37.1633,12.0716 C37.2183,12.0626 37.2743,12.0576 37.3313,12.0576 Z M2.0113,11.3536 L2.0113,12.6236 C2.1013,12.4376 2.2473,12.2816 2.4353,12.1796 C2.6343,12.0716 2.8603,12.0356 3.0773,12.0716 C2.8673,11.8726 2.7513,11.5886 2.7673,11.2926 C2.7743,11.1556 2.8093,11.0226 2.8683,10.9036 L2.0123,11.3426 C2.0123,11.3466 2.0113,11.3506 2.0113,11.3536 Z M5.7703,11.4526 L20.1223,20.7406 L34.4723,11.4516 L20.1453,4.1806 L5.7703,11.4526 Z M19.9063,22.9086 C20.0053,23.0176 20.0783,23.1476 20.1213,23.2886 C20.1643,23.1476 20.2373,23.0176 20.3363,22.9096 C20.1943,22.9396 20.0483,22.9396 19.9063,22.9086 Z M37.3313,38.0716 L37.3403,38.0716 L37.3313,38.0716 Z M38.2313,38.5066 C38.2193,38.5316 38.2063,38.5566 38.1923,38.5806 L38.2313,38.5066 Z M2.0113,38.5576 L2.0513,38.5806 C2.0373,38.5566 2.0233,38.5316 2.0113,38.5056 L2.0113,38.5576 Z M3.9123,37.4856 L18.1653,45.4626 L18.1653,24.1236 L3.9123,14.8966 L3.9123,37.4856 Z M22.0783,24.1236 L22.0783,45.4626 L36.3313,37.4856 L36.3313,14.8966 L22.0783,24.1236 Z M20.1273,50.8656 L20.1153,50.8656 C20.0503,50.8656 19.9393,50.8536 19.8763,50.8416 C19.8213,50.8386 19.7263,50.8256 19.6313,50.8006 C19.5193,50.7716 19.4053,50.7256 19.2913,50.6726 C19.2433,50.6566 19.2463,50.6566 19.2113,50.6366 C19.1653,50.6166 19.1113,50.5886 19.0523,50.5506 L0.9513,40.2556 C0.3443,39.8646 0.0113,39.2526 0.0113,38.5886 L0.0113,11.3106 C0.0113,11.2916 0.0123,11.2716 0.0133,11.2526 C0.0193,11.1186 0.0383,11.0046 0.0623,10.8936 C0.0683,10.8346 0.0673,10.8436 0.0833,10.7866 C0.1303,10.6226 0.1963,10.4676 0.2813,10.3226 C0.3113,10.2716 0.3653,10.1976 0.4033,10.1526 C0.4213,10.1176 0.4993,10.0156 0.5923,9.9246 C0.6303,9.8866 0.7133,9.8186 0.7573,9.7876 C0.8103,9.7396 0.8843,9.6826 0.9673,9.6326 L19.2043,0.2476 C19.7663,-0.0874 20.5303,-0.0874 21.1443,0.2786 L39.1433,9.5636 C39.1803,9.5806 39.2163,9.5986 39.2493,9.6186 C39.2753,9.6346 39.3063,9.6546 39.3343,9.6756 C39.8973,10.0376 40.2313,10.6446 40.2313,11.3106 L40.2313,38.5886 C40.2313,39.2526 39.8983,39.8646 39.3413,40.2256 L21.1393,50.5816 C21.1153,50.5956 21.0793,50.6136 21.0443,50.6296 C20.9933,50.6586 20.9453,50.6786 20.9063,50.6926 C20.7963,50.7416 20.6993,50.7786 20.5973,50.8036 C20.5213,50.8246 20.4223,50.8386 20.3223,50.8476 C20.2883,50.8566 20.2083,50.8656 20.1273,50.8656 Z" id="Fill-3" fill="#232528"></path>
                <path d="M20.1434,50.8656 C20.1184,50.8656 20.0914,50.8646 20.0634,50.8626 C19.9134,50.8556 19.7704,50.8336 19.6314,50.7946 C19.5874,50.7836 19.4984,50.7506 19.4564,50.7336 C19.3814,50.7066 19.2904,50.6666 19.1994,50.6176 C19.1534,50.5946 19.1084,50.5696 19.0704,50.5446 L0.9334,40.1906 C-0.0166,39.5756 -0.2736,38.3656 0.3114,37.4636 C0.8964,36.5606 2.1074,36.3036 3.0094,36.8906 L20.1464,46.6346 L34.9714,38.3126 L18.9684,24.6306 L0.9174,12.9476 C0.3464,12.5776 0.0144,11.9516 0.0274,11.2726 C0.0404,10.5916 0.3974,9.9786 0.9834,9.6326 L19.2194,0.2476 C19.7824,-0.0874 20.5454,-0.0874 21.1594,0.2786 L39.2354,9.6066 C40.2114,10.1856 40.5164,11.3846 39.9674,12.3086 C39.7004,12.7566 39.2754,13.0736 38.7714,13.2026 C38.2654,13.3316 37.7404,13.2546 37.2934,12.9876 L20.1574,4.1826 L5.7854,11.4526 L21.1974,21.4266 C21.2724,21.4756 21.3424,21.5286 21.4074,21.5836 L39.5464,37.0916 C39.6664,37.1876 39.7924,37.3246 39.8984,37.4776 C39.9094,37.4936 39.9474,37.5526 39.9604,37.5726 C40.2004,37.9656 40.2934,38.4316 40.2224,38.8866 C40.2094,38.9716 40.1924,39.0526 40.1684,39.1316 C40.0404,39.5776 39.7544,39.9646 39.3654,40.2196 C39.3414,40.2356 39.3174,40.2496 39.2934,40.2626 L21.1544,50.5816 C21.1344,50.5926 21.1124,50.6046 21.0884,50.6166 C21.0024,50.6636 20.9044,50.7066 20.8014,50.7436 C20.7804,50.7506 20.6834,50.7876 20.6624,50.7936 C20.5114,50.8336 20.3654,50.8566 20.2204,50.8626 C20.1944,50.8646 20.1684,50.8656 20.1434,50.8656 Z" id="Fill-7" fill="#2C70FF"></path>
            </g>
            <g id="sm" transform="translate(44.000000, 10.000000)" fill="#2C70FF">
                <polygon id="Fill-9" points="16.2942 5.7271 10.6382 5.6651 10.6382 29.7681 6.1102 29.7681 6.1102 5.6651 0.4342 5.6651 0.4342 1.2821 16.2942 1.2821"></polygon>
                <path d="M31.9114,20.001 L28.2294,7.504 L24.7504,20.001 L31.9114,20.001 Z M39.3954,29.768 L34.7354,29.768 L33.1524,24.383 L23.5414,24.383 L22.0364,29.768 L17.3794,29.768 L25.1014,3.662 C25.6714,1.713 26.7774,0.74 28.4194,0.74 C29.9634,0.74 31.0344,1.734 31.6324,3.724 L39.3954,29.768 Z" id="Fill-11"></path>
                <path d="M47.7219,15.4937 C47.8749,14.6447 48.2779,14.0817 48.9319,13.8037 C49.1959,13.6787 49.9409,13.5317 51.1649,13.3647 C53.1399,13.0867 54.1279,11.8907 54.1279,9.7757 C54.1279,8.9547 53.9329,8.1967 53.5439,7.5007 C53.1129,6.7497 52.5459,6.2457 51.8429,5.9877 C51.1399,5.7307 49.7669,5.6017 47.7219,5.6017 L47.7219,15.4937 Z M58.6569,29.7677 L54.1279,29.7677 L54.1279,19.7507 C54.1279,19.0137 54.0659,18.5407 53.9409,18.3317 C53.7599,18.0257 53.3349,17.8727 52.6679,17.8727 L50.4969,17.8727 C48.9529,17.8727 48.0279,17.3297 47.7219,16.2447 L47.7219,29.7677 L43.1929,29.7677 L43.1929,5.7897 C43.1929,4.2037 43.5099,3.0557 44.1429,2.3467 C44.7759,1.6367 45.8709,1.2827 47.4299,1.2827 L50.1419,1.2827 C52.4379,1.2827 54.3509,1.9497 55.8809,3.2857 C57.7309,4.8997 58.6569,6.9587 58.6569,9.4627 C58.6569,12.0777 57.7179,13.9707 55.8399,15.1387 C57.7179,15.4177 58.6569,16.6977 58.6569,18.9787 L58.6569,29.7677 Z" id="Fill-13"></path>
                <polygon id="Fill-15" points="77.8142 5.7271 72.1592 5.6651 72.1592 29.7681 67.6302 29.7681 67.6302 5.6651 61.9542 5.6651 61.9542 1.2821 77.8142 1.2821"></polygon>
                <path d="M94.5085,29.7676 L85.6605,29.7676 C84.1295,29.7676 83.0445,29.4446 82.4045,28.7976 C81.7655,28.1506 81.4455,27.0616 81.4455,25.5316 L81.4455,5.7266 C81.4455,4.0436 81.8035,2.8826 82.5205,2.2426 C83.2365,1.6026 84.2205,1.2826 85.4725,1.2826 L94.5085,1.2826 L94.5085,5.6646 L85.9735,5.6646 L85.9735,12.8226 L93.7575,12.8226 L93.7575,17.2046 L85.9735,17.2046 L85.9735,25.3856 L94.5085,25.3856 L94.5085,29.7676 Z" id="Fill-17"></path>
                <path d="M104.4216,15.4937 C104.5746,14.6447 104.9786,14.0817 105.6326,13.8037 C105.8966,13.6787 106.6406,13.5317 107.8646,13.3647 C109.8406,13.0867 110.8286,11.8907 110.8286,9.7757 C110.8286,8.9547 110.6336,8.1967 110.2436,7.5007 C109.8136,6.7497 109.2456,6.2457 108.5436,5.9877 C107.8406,5.7307 106.4666,5.6017 104.4216,5.6017 L104.4216,15.4937 Z M115.3576,29.7677 L110.8286,29.7677 L110.8286,19.7507 C110.8286,19.0137 110.7666,18.5407 110.6406,18.3317 C110.4596,18.0257 110.0356,17.8727 109.3676,17.8727 L107.1966,17.8727 C105.6526,17.8727 104.7276,17.3297 104.4216,16.2447 L104.4216,29.7677 L99.8936,29.7677 L99.8936,5.7897 C99.8936,4.2037 100.2096,3.0557 100.8426,2.3467 C101.4766,1.6367 102.5706,1.2827 104.1296,1.2827 L106.8426,1.2827 C109.1386,1.2827 111.0506,1.9497 112.5816,3.2857 C114.4316,4.8997 115.3576,6.9587 115.3576,9.4627 C115.3576,12.0777 114.4176,13.9707 112.5396,15.1387 C114.4176,15.4177 115.3576,16.6977 115.3576,18.9787 L115.3576,29.7677 Z" id="Fill-19"></path>
                <path d="M140.5867,29.7676 L135.0157,29.7676 L126.8147,17.4756 C126.3137,16.7246 126.0627,16.0086 126.0627,15.3266 C126.0627,14.4776 126.3197,13.6436 126.8347,12.8226 L134.0137,1.2826 L139.1977,1.2826 L130.3437,15.1216 L140.5867,29.7676 Z M121.3677,29.7676 L125.8957,29.7676 L125.8957,1.2826 L121.3677,1.2826 L121.3677,29.7676 Z" id="Fill-21"></path>
                <polygon id="Fill-23" points="143.403 29.7677 147.931 29.7677 147.931 1.2827 143.403 1.2827"></polygon>
                <polygon id="Fill-25" points="167.4031 5.7271 161.7481 5.6651 161.7481 29.7681 157.2191 29.7681 157.2191 5.6651 151.5431 5.6651 151.5431 1.2821 167.4031 1.2821"></polygon>
            </g>
            <g id="claim" transform="translate(47.000000, 42.000000)" fill="#232528">
                <path d="M2.3499,5.292 L2.4919,5.842 L2.5159,5.842 L3.5929,2.534 L4.4799,2.534 L2.6379,7.588 C2.5269,7.882 2.3679,8.138 2.1619,8.357 C1.9549,8.576 1.6759,8.685 1.3259,8.685 C1.2609,8.685 1.1779,8.678 1.0789,8.663 C0.9779,8.648 0.9019,8.634 0.8479,8.62 L0.9289,7.993 C0.9129,7.99 0.9599,7.993 1.0719,8 C1.1839,8.009 1.2549,8.013 1.2849,8.013 C1.4549,8.013 1.5939,7.938 1.7019,7.786 C1.8099,7.635 1.8999,7.468 1.9739,7.284 L2.1629,6.827 L0.5359,2.534 L1.4269,2.534 L2.3499,5.292 Z" id="Fill-26"></path>
                <path d="M5.7307,4.7715 C5.7307,5.2355 5.8287,5.6185 6.0237,5.9195 C6.2197,6.2225 6.5107,6.3735 6.8967,6.3735 C7.2777,6.3735 7.5667,6.2225 7.7637,5.9195 C7.9607,5.6185 8.0597,5.2355 8.0597,4.7715 L8.0597,4.6825 C8.0597,4.2245 7.9597,3.8425 7.7617,3.5385 C7.5637,3.2335 7.2727,3.0815 6.8887,3.0815 C6.5077,3.0815 6.2197,3.2335 6.0237,3.5385 C5.8287,3.8425 5.7307,4.2245 5.7307,4.6825 L5.7307,4.7715 Z M4.9327,4.6845 C4.9327,4.0365 5.1087,3.5025 5.4597,3.0835 C5.8107,2.6635 6.2867,2.4535 6.8887,2.4535 C7.4967,2.4535 7.9767,2.6625 8.3287,3.0815 C8.6807,3.4995 8.8567,4.0335 8.8567,4.6845 L8.8567,4.7735 C8.8567,5.4265 8.6817,5.9615 8.3307,6.3765 C7.9797,6.7925 7.5017,7.0005 6.8967,7.0005 C6.2927,7.0005 5.8137,6.7925 5.4617,6.3755 C5.1087,5.9585 4.9327,5.4235 4.9327,4.7735 L4.9327,4.6845 Z" id="Fill-27"></path>
                <path d="M12.6145,6.2676 C12.4765,6.5026 12.3005,6.6836 12.0845,6.8096 C11.8675,6.9366 11.6185,7.0006 11.3355,7.0006 C10.8575,7.0006 10.4845,6.8486 10.2175,6.5426 C9.9495,6.2376 9.8165,5.7626 9.8165,5.1176 L9.8165,2.5346 L10.6145,2.5346 L10.6145,5.1256 C10.6145,5.5926 10.6825,5.9136 10.8205,6.0896 C10.9585,6.2656 11.1735,6.3526 11.4645,6.3526 C11.7475,6.3526 11.9825,6.2956 12.1675,6.1806 C12.3515,6.0656 12.4915,5.9036 12.5865,5.6926 L12.5865,2.5346 L13.3845,2.5346 L13.3845,6.9156 L12.6675,6.9156 L12.6145,6.2676 Z" id="Fill-28"></path>
                <path d="M16.6194,3.2388 L16.2104,3.2148 C15.9994,3.2148 15.8224,3.2648 15.6784,3.3638 C15.5334,3.4648 15.4224,3.6048 15.3444,3.7858 L15.3444,6.9158 L14.5464,6.9158 L14.5464,2.5338 L15.2584,2.5338 L15.3354,3.1738 C15.4594,2.9468 15.6134,2.7708 15.7954,2.6438 C15.9774,2.5168 16.1874,2.4528 16.4254,2.4528 C16.4844,2.4528 16.5404,2.4578 16.5954,2.4678 C16.6494,2.4768 16.6934,2.4868 16.7284,2.4978 L16.6194,3.2388 Z" id="Fill-29"></path>
                <path d="M20.8186,6.3287 C21.1076,6.3287 21.3676,6.2547 21.5996,6.1067 C21.8326,5.9587 21.9836,5.7887 22.0536,5.5977 L22.0536,4.8867 L21.1586,4.8867 C20.8376,4.8867 20.5806,4.9677 20.3876,5.1287 C20.1936,5.2907 20.0976,5.4807 20.0976,5.6987 C20.0976,5.8917 20.1586,6.0457 20.2796,6.1587 C20.4016,6.2717 20.5806,6.3287 20.8186,6.3287 Z M22.1426,6.9157 C22.1156,6.7837 22.0946,6.6667 22.0796,6.5657 C22.0656,6.4637 22.0566,6.3627 22.0536,6.2597 C21.9046,6.4707 21.7116,6.6467 21.4726,6.7877 C21.2336,6.9297 20.9766,7.0007 20.7006,7.0007 C20.2446,7.0007 19.8976,6.8837 19.6586,6.6507 C19.4196,6.4167 19.2996,6.0947 19.2996,5.6847 C19.2996,5.2667 19.4696,4.9387 19.8086,4.7027 C20.1476,4.4667 20.6066,4.3487 21.1876,4.3487 L22.0536,4.3487 L22.0536,3.9147 C22.0536,3.6587 21.9756,3.4557 21.8186,3.3057 C21.6626,3.1557 21.4406,3.0807 21.1546,3.0807 C20.8986,3.0807 20.6896,3.1467 20.5286,3.2777 C20.3686,3.4087 20.2886,3.5657 20.2886,3.7487 L19.5266,3.7487 L19.5186,3.7247 C19.5026,3.4067 19.6526,3.1147 19.9706,2.8497 C20.2876,2.5857 20.6966,2.4537 21.1986,2.4537 C21.6956,2.4537 22.0956,2.5797 22.3976,2.8317 C22.6996,3.0847 22.8516,3.4487 22.8516,3.9237 L22.8516,6.0327 C22.8516,6.1897 22.8596,6.3407 22.8756,6.4867 C22.8916,6.6317 22.9216,6.7757 22.9646,6.9157 L22.1426,6.9157 Z" id="Fill-30"></path>
                <polygon id="Fill-31" points="25.1311 5.3204 25.2241 5.8504 25.2491 5.8504 25.3621 5.3204 26.2361 2.5344 26.8761 2.5344 27.7551 5.3204 27.8811 5.9114 27.9051 5.9114 28.0221 5.3204 28.7111 2.5344 29.5041 2.5344 28.2331 6.9154 27.5891 6.9154 26.7431 4.2474 26.5601 3.5024 26.5361 3.5064 26.3621 4.2474 25.5281 6.9154 24.8841 6.9154 23.6121 2.5344 24.4061 2.5344"></polygon>
                <path d="M31.9827,3.0811 C31.7147,3.0811 31.4867,3.1931 31.2977,3.4181 C31.1087,3.6431 30.9927,3.9241 30.9497,4.2631 L30.9587,4.2841 L32.9787,4.2841 L32.9787,4.1791 C32.9787,3.8671 32.8947,3.6051 32.7277,3.3951 C32.5607,3.1861 32.3117,3.0811 31.9827,3.0811 M32.1037,7.0001 C31.4937,7.0001 31.0087,6.7971 30.6487,6.3911 C30.2877,5.9851 30.1077,5.4581 30.1077,4.8101 L30.1077,4.6321 C30.1077,4.0081 30.2937,3.4891 30.6647,3.0751 C31.0357,2.6611 31.4747,2.4531 31.9827,2.4531 C32.5737,2.4531 33.0207,2.6311 33.3227,2.9881 C33.6257,3.3441 33.7757,3.8191 33.7757,4.4131 L33.7757,4.9111 L30.9337,4.9111 L30.9217,4.9311 C30.9297,5.3511 31.0367,5.6971 31.2417,5.9671 C31.4467,6.2381 31.7337,6.3731 32.1037,6.3731 C32.3737,6.3731 32.6107,6.3341 32.8147,6.2571 C33.0187,6.1811 33.1947,6.0751 33.3427,5.9391 L33.6547,6.4581 C33.4987,6.6131 33.2917,6.7421 33.0357,6.8461 C32.7787,6.9491 32.4687,7.0001 32.1037,7.0001" id="Fill-32"></path>
                <path d="M37.218,5.7496 C37.218,5.5736 37.151,5.4296 37.018,5.3156 C36.884,5.2026 36.631,5.1036 36.259,5.0206 C35.726,4.9046 35.326,4.7476 35.058,4.5496 C34.789,4.3516 34.655,4.0816 34.655,3.7386 C34.655,3.3836 34.806,3.0806 35.109,2.8296 C35.411,2.5786 35.805,2.4536 36.291,2.4536 C36.801,2.4536 37.207,2.5836 37.508,2.8466 C37.808,3.1076 37.952,3.4266 37.939,3.8016 L37.931,3.8266 L37.17,3.8266 C37.17,3.6346 37.089,3.4626 36.928,3.3096 C36.768,3.1576 36.555,3.0816 36.291,3.0816 C36.008,3.0816 35.797,3.1436 35.659,3.2676 C35.521,3.3916 35.452,3.5416 35.452,3.7166 C35.452,3.8896 35.513,4.0256 35.635,4.1256 C35.756,4.2256 36.003,4.3146 36.376,4.3936 C36.929,4.5116 37.341,4.6726 37.611,4.8766 C37.881,5.0806 38.016,5.3536 38.016,5.6966 C38.016,6.0856 37.859,6.3996 37.544,6.6406 C37.23,6.8806 36.819,7.0006 36.311,7.0006 C35.752,7.0006 35.312,6.8586 34.991,6.5756 C34.67,6.2916 34.517,5.9616 34.533,5.5836 L34.542,5.5596 L35.303,5.5596 C35.316,5.8416 35.422,6.0476 35.618,6.1776 C35.816,6.3076 36.047,6.3736 36.311,6.3736 C36.594,6.3736 36.817,6.3156 36.977,6.2006 C37.138,6.0856 37.218,5.9356 37.218,5.7496" id="Fill-33"></path>
                <path d="M39.6194,4.7715 C39.6194,5.2355 39.7174,5.6185 39.9124,5.9195 C40.1084,6.2225 40.3994,6.3735 40.7854,6.3735 C41.1664,6.3735 41.4554,6.2225 41.6524,5.9195 C41.8494,5.6185 41.9484,5.2355 41.9484,4.7715 L41.9484,4.6825 C41.9484,4.2245 41.8484,3.8425 41.6504,3.5385 C41.4524,3.2335 41.1614,3.0815 40.7774,3.0815 C40.3964,3.0815 40.1084,3.2335 39.9124,3.5385 C39.7174,3.8425 39.6194,4.2245 39.6194,4.6825 L39.6194,4.7715 Z M38.8214,4.6845 C38.8214,4.0365 38.9974,3.5025 39.3484,3.0835 C39.6994,2.6635 40.1754,2.4535 40.7774,2.4535 C41.3854,2.4535 41.8654,2.6625 42.2174,3.0815 C42.5694,3.4995 42.7454,4.0335 42.7454,4.6845 L42.7454,4.7735 C42.7454,5.4265 42.5704,5.9615 42.2194,6.3765 C41.8684,6.7925 41.3904,7.0005 40.7854,7.0005 C40.1814,7.0005 39.7024,6.7925 39.3504,6.3755 C38.9974,5.9585 38.8214,5.4235 38.8214,4.7735 L38.8214,4.6845 Z" id="Fill-34"></path>
                <path d="M44.4338,2.5342 L44.4908,3.1092 C44.6338,2.9012 44.8148,2.7402 45.0358,2.6252 C45.2548,2.5112 45.5108,2.4532 45.8028,2.4532 C46.0948,2.4532 46.3448,2.5202 46.5538,2.6562 C46.7628,2.7902 46.9198,2.9932 47.0258,3.2632 C47.1628,3.0142 47.3458,2.8182 47.5718,2.6722 C47.7988,2.5262 48.0638,2.4532 48.3658,2.4532 C48.8108,2.4532 49.1638,2.6062 49.4228,2.9122 C49.6818,3.2192 49.8108,3.6802 49.8108,4.2952 L49.8108,6.9152 L49.0138,6.9152 L49.0138,4.2872 C49.0138,3.8552 48.9398,3.5502 48.7908,3.3702 C48.6418,3.1912 48.4208,3.1012 48.1268,3.1012 C47.8538,3.1012 47.6338,3.1962 47.4648,3.3852 C47.2958,3.5742 47.1968,3.8122 47.1668,4.1012 L47.1668,4.1342 L47.1668,6.9152 L46.3658,6.9152 L46.3658,4.2872 C46.3658,3.8772 46.2888,3.5762 46.1368,3.3872 C45.9838,3.1962 45.7648,3.1012 45.4788,3.1012 C45.2358,3.1012 45.0358,3.1512 44.8798,3.2512 C44.7228,3.3512 44.6028,3.4912 44.5188,3.6722 L44.5188,6.9152 L43.7218,6.9152 L43.7218,2.5342 L44.4338,2.5342 Z" id="Fill-35"></path>
                <path d="M52.6663,3.0811 C52.3983,3.0811 52.1703,3.1931 51.9813,3.4181 C51.7923,3.6431 51.6763,3.9241 51.6333,4.2631 L51.6423,4.2841 L53.6623,4.2841 L53.6623,4.1791 C53.6623,3.8671 53.5783,3.6051 53.4113,3.3951 C53.2443,3.1861 52.9953,3.0811 52.6663,3.0811 M52.7873,7.0001 C52.1773,7.0001 51.6923,6.7971 51.3323,6.3911 C50.9713,5.9851 50.7913,5.4581 50.7913,4.8101 L50.7913,4.6321 C50.7913,4.0081 50.9773,3.4891 51.3483,3.0751 C51.7193,2.6611 52.1583,2.4531 52.6663,2.4531 C53.2573,2.4531 53.7043,2.6311 54.0063,2.9881 C54.3093,3.3441 54.4593,3.8191 54.4593,4.4131 L54.4593,4.9111 L51.6173,4.9111 L51.6053,4.9311 C51.6133,5.3511 51.7203,5.6971 51.9253,5.9671 C52.1303,6.2381 52.4173,6.3731 52.7873,6.3731 C53.0573,6.3731 53.2943,6.3341 53.4983,6.2571 C53.7023,6.1811 53.8783,6.0751 54.0263,5.9391 L54.3383,6.4581 C54.1823,6.6131 53.9753,6.7421 53.7193,6.8461 C53.4623,6.9491 53.1523,7.0001 52.7873,7.0001" id="Fill-36"></path>
                <path d="M60.3513,4.8038 C60.3513,4.3078 60.2533,3.8998 60.0583,3.5808 C59.8623,3.2608 59.5743,3.1008 59.1933,3.1008 C58.9633,3.1008 58.7683,3.1528 58.6063,3.2568 C58.4443,3.3608 58.3133,3.5028 58.2133,3.6838 L58.2133,5.7988 C58.3133,5.9798 58.4443,6.1198 58.6063,6.2208 C58.7683,6.3228 58.9663,6.3728 59.2013,6.3728 C59.5793,6.3728 59.8653,6.2348 60.0593,5.9588 C60.2543,5.6818 60.3513,5.3258 60.3513,4.8888 L60.3513,4.8038 Z M61.1493,4.8908 C61.1493,5.5228 60.9973,6.0328 60.6953,6.4198 C60.3933,6.8068 59.9763,7.0008 59.4443,7.0008 C59.1743,7.0008 58.9373,6.9558 58.7333,6.8648 C58.5303,6.7748 58.3563,6.6388 58.2133,6.4578 L58.2133,8.5998 L57.4153,8.5998 L57.4153,2.5338 L58.0273,2.5338 L58.1523,3.1008 C58.2953,2.8908 58.4743,2.7298 58.6873,2.6188 C58.9003,2.5088 59.1483,2.4528 59.4323,2.4528 C59.9753,2.4528 60.3963,2.6688 60.6973,3.0988 C60.9983,3.5298 61.1493,4.0988 61.1493,4.8058 L61.1493,4.8908 Z" id="Fill-37"></path>
                <path d="M64.2029,3.2388 L63.7939,3.2148 C63.5839,3.2148 63.4059,3.2648 63.2619,3.3638 C63.1169,3.4648 63.0059,3.6048 62.9279,3.7858 L62.9279,6.9158 L62.1299,6.9158 L62.1299,2.5338 L62.8429,2.5338 L62.9199,3.1738 C63.0439,2.9468 63.1969,2.7708 63.3789,2.6438 C63.5609,2.5168 63.7709,2.4528 64.0089,2.4528 C64.0679,2.4528 64.1249,2.4578 64.1789,2.4678 C64.2319,2.4768 64.2769,2.4868 64.3119,2.4978 L64.2029,3.2388 Z" id="Fill-38"></path>
                <path d="M65.5017,4.7715 C65.5017,5.2355 65.5997,5.6185 65.7957,5.9195 C65.9907,6.2225 66.2817,6.3735 66.6677,6.3735 C67.0487,6.3735 67.3377,6.2225 67.5347,5.9195 C67.7307,5.6185 67.8297,5.2355 67.8297,4.7715 L67.8297,4.6825 C67.8297,4.2245 67.7307,3.8425 67.5327,3.5385 C67.3337,3.2335 67.0427,3.0815 66.6597,3.0815 C66.2787,3.0815 65.9907,3.2335 65.7957,3.5385 C65.5997,3.8425 65.5017,4.2245 65.5017,4.6825 L65.5017,4.7715 Z M64.7037,4.6845 C64.7037,4.0365 64.8797,3.5025 65.2307,3.0835 C65.5817,2.6635 66.0577,2.4535 66.6597,2.4535 C67.2677,2.4535 67.7467,2.6625 68.0997,3.0815 C68.4517,3.4995 68.6277,4.0335 68.6277,4.6845 L68.6277,4.7735 C68.6277,5.4265 68.4517,5.9615 68.1017,6.3765 C67.7507,6.7925 67.2727,7.0005 66.6677,7.0005 C66.0637,7.0005 65.5847,6.7925 65.2317,6.3755 C64.8807,5.9585 64.7037,5.4235 64.7037,4.7735 L64.7037,4.6845 Z" id="Fill-39"></path>
                <path d="M70.2195,4.8912 C70.2195,5.3332 70.3105,5.6882 70.4905,5.9532 C70.6715,6.2202 70.9525,6.3522 71.3325,6.3522 C71.5715,6.3522 71.7705,6.2992 71.9325,6.1912 C72.0945,6.0832 72.2265,5.9322 72.3295,5.7372 L72.3295,3.6922 C72.2265,3.5122 72.0935,3.3682 71.9305,3.2612 C71.7675,3.1542 71.5715,3.1012 71.3415,3.1012 C70.9575,3.1012 70.6755,3.2592 70.4925,3.5752 C70.3105,3.8912 70.2195,4.3012 70.2195,4.8062 L70.2195,4.8912 Z M69.4215,4.8062 C69.4215,4.1012 69.5725,3.5332 69.8735,3.1012 C70.1745,2.6692 70.5965,2.4532 71.1385,2.4532 C71.3955,2.4532 71.6225,2.5002 71.8215,2.5952 C72.0195,2.6892 72.1895,2.8272 72.3295,3.0082 L72.3295,0.5992 L73.1265,0.5992 L73.1265,6.9152 L72.4755,6.9152 L72.3815,6.3772 C72.2395,6.5822 72.0635,6.7372 71.8555,6.8432 C71.6475,6.9482 71.4065,7.0002 71.1305,7.0002 C70.5965,7.0002 70.1775,6.8072 69.8755,6.4192 C69.5735,6.0322 69.4215,5.5222 69.4215,4.8912 L69.4215,4.8062 Z" id="Fill-40"></path>
                <path d="M77.0994,6.2676 C76.9614,6.5026 76.7844,6.6836 76.5684,6.8096 C76.3524,6.9366 76.1034,7.0006 75.8194,7.0006 C75.3414,7.0006 74.9694,6.8486 74.7024,6.5426 C74.4344,6.2376 74.3004,5.7626 74.3004,5.1176 L74.3004,2.5346 L75.0984,2.5346 L75.0984,5.1256 C75.0984,5.5926 75.1674,5.9136 75.3054,6.0896 C75.4434,6.2656 75.6574,6.3526 75.9494,6.3526 C76.2324,6.3526 76.4664,6.2956 76.6514,6.1806 C76.8364,6.0656 76.9764,5.9036 77.0714,5.6926 L77.0714,2.5346 L77.8684,2.5346 L77.8684,6.9156 L77.1514,6.9156 L77.0994,6.2676 Z" id="Fill-41"></path>
                <path d="M80.8123,6.3731 C81.0773,6.3731 81.3103,6.2911 81.5113,6.1281 C81.7123,5.9651 81.8133,5.7641 81.8133,5.5271 L82.5293,5.5271 L82.5383,5.5511 C82.5513,5.9291 82.3823,6.2651 82.0343,6.5591 C81.6843,6.8531 81.2773,7.0001 80.8123,7.0001 C80.1753,7.0001 79.6883,6.7921 79.3513,6.3771 C79.0133,5.9611 78.8443,5.4391 78.8443,4.8101 L78.8443,4.6401 C78.8443,4.0161 79.0143,3.4961 79.3533,3.0791 C79.6913,2.6621 80.1783,2.4531 80.8123,2.4531 C81.3263,2.4531 81.7453,2.6041 82.0703,2.9071 C82.3953,3.2091 82.5523,3.5801 82.5413,4.0201 L82.5343,4.0441 L81.8133,4.0441 C81.8133,3.7771 81.7183,3.5501 81.5293,3.3621 C81.3403,3.1751 81.1013,3.0811 80.8123,3.0811 C80.3943,3.0811 80.0953,3.2311 79.9163,3.5321 C79.7363,3.8321 79.6463,4.2011 79.6463,4.6381 L79.6463,4.8081 C79.6463,5.2551 79.7353,5.6281 79.9143,5.9261 C80.0913,6.2241 80.3913,6.3731 80.8123,6.3731" id="Fill-42"></path>
                <path d="M84.4851,1.4776 L84.4851,2.5346 L85.3151,2.5346 L85.3151,3.1256 L84.4851,3.1256 L84.4851,5.7856 C84.4851,5.9906 84.5281,6.1356 84.6131,6.2196 C84.6981,6.3026 84.8101,6.3446 84.9511,6.3446 C84.9971,6.3446 85.0471,6.3396 85.1021,6.3286 C85.1581,6.3176 85.2071,6.3046 85.2511,6.2886 L85.3561,6.8346 C85.2971,6.8836 85.2101,6.9226 85.0941,6.9546 C84.9801,6.9846 84.8641,7.0006 84.7491,7.0006 C84.4241,7.0006 84.1671,6.9026 83.9751,6.7066 C83.7831,6.5116 83.6871,6.2046 83.6871,5.7856 L83.6871,3.1256 L82.9911,3.1256 L82.9911,2.5346 L83.6871,2.5346 L83.6871,1.4776 L84.4851,1.4776 Z" id="Fill-43"></path>
                <polygon id="Fill-44" points="85.862 4.7367 87.846 4.7367 87.846 4.1127 85.862 4.1127"></polygon>
                <path d="M91.5066,4.8038 C91.5066,4.3078 91.4086,3.8998 91.2136,3.5808 C91.0176,3.2608 90.7296,3.1008 90.3486,3.1008 C90.1186,3.1008 89.9236,3.1528 89.7616,3.2568 C89.5996,3.3608 89.4686,3.5028 89.3686,3.6838 L89.3686,5.7988 C89.4686,5.9798 89.5996,6.1198 89.7616,6.2208 C89.9236,6.3228 90.1216,6.3728 90.3576,6.3728 C90.7356,6.3728 91.0216,6.2348 91.2156,5.9588 C91.4096,5.6818 91.5066,5.3258 91.5066,4.8888 L91.5066,4.8038 Z M92.3046,4.8908 C92.3046,5.5228 92.1526,6.0328 91.8516,6.4198 C91.5486,6.8068 91.1316,7.0008 90.5996,7.0008 C90.3296,7.0008 90.0926,6.9558 89.8896,6.8648 C89.6856,6.7748 89.5116,6.6388 89.3686,6.4578 L89.3686,8.5998 L88.5706,8.5998 L88.5706,2.5338 L89.1826,2.5338 L89.3086,3.1008 C89.4506,2.8908 89.6296,2.7298 89.8426,2.6188 C90.0556,2.5088 90.3046,2.4528 90.5876,2.4528 C91.1306,2.4528 91.5516,2.6688 91.8536,3.0988 C92.1536,3.5298 92.3046,4.0988 92.3046,4.8058 L92.3046,4.8908 Z" id="Fill-45"></path>
                <path d="M94.6521,6.3287 C94.9411,6.3287 95.2021,6.2547 95.4341,6.1067 C95.6661,5.9587 95.8171,5.7887 95.8871,5.5977 L95.8871,4.8867 L94.9931,4.8867 C94.6721,4.8867 94.4141,4.9677 94.2211,5.1287 C94.0281,5.2907 93.9311,5.4807 93.9311,5.6987 C93.9311,5.8917 93.9931,6.0457 94.1141,6.1587 C94.2351,6.2717 94.4151,6.3287 94.6521,6.3287 Z M95.9761,6.9157 C95.9501,6.7837 95.9281,6.6667 95.9141,6.5657 C95.8991,6.4637 95.8901,6.3627 95.8871,6.2597 C95.7391,6.4707 95.5461,6.6467 95.3061,6.7877 C95.0671,6.9297 94.8101,7.0007 94.5351,7.0007 C94.0791,7.0007 93.7311,6.8837 93.4921,6.6507 C93.2541,6.4167 93.1341,6.0947 93.1341,5.6847 C93.1341,5.2667 93.3031,4.9387 93.6421,4.7027 C93.9811,4.4667 94.4401,4.3487 95.0211,4.3487 L95.8871,4.3487 L95.8871,3.9147 C95.8871,3.6587 95.8091,3.4557 95.6531,3.3057 C95.4961,3.1557 95.2751,3.0807 94.9891,3.0807 C94.7321,3.0807 94.5231,3.1467 94.3631,3.2777 C94.2021,3.4087 94.1221,3.5657 94.1221,3.7487 L93.3611,3.7487 L93.3521,3.7247 C93.3371,3.4067 93.4871,3.1147 93.8041,2.8497 C94.1221,2.5857 94.5311,2.4537 95.0331,2.4537 C95.5301,2.4537 95.9291,2.5797 96.2321,2.8317 C96.5341,3.0847 96.6851,3.4487 96.6851,3.9237 L96.6851,6.0327 C96.6851,6.1897 96.6931,6.3407 96.7101,6.4867 C96.7251,6.6317 96.7561,6.7757 96.7981,6.9157 L95.9761,6.9157 Z" id="Fill-46"></path>
                <path d="M98.4666,4.8912 C98.4666,5.3312 98.5606,5.6842 98.7466,5.9522 C98.9326,6.2192 99.2166,6.3522 99.5966,6.3522 C99.8366,6.3522 100.0376,6.2982 100.1996,6.1882 C100.3626,6.0792 100.4956,5.9252 100.6016,5.7252 L100.6016,3.7082 C100.4986,3.5222 100.3646,3.3742 100.1996,3.2652 C100.0356,3.1562 99.8366,3.1012 99.6056,3.1012 C99.2246,3.1012 98.9396,3.2602 98.7506,3.5792 C98.5616,3.8972 98.4666,4.3072 98.4666,4.8062 L98.4666,4.8912 Z M97.6696,4.8062 C97.6696,4.1012 97.8226,3.5332 98.1306,3.1012 C98.4386,2.6692 98.8636,2.4532 99.4056,2.4532 C99.6846,2.4532 99.9286,2.5092 100.1396,2.6212 C100.3506,2.7332 100.5256,2.8942 100.6656,3.1052 L100.7636,2.5342 L101.3996,2.5342 L101.3996,6.9402 C101.3996,7.5012 101.2356,7.9332 100.9086,8.2332 C100.5816,8.5352 100.1116,8.6852 99.4956,8.6852 C99.2846,8.6852 99.0576,8.6562 98.8136,8.5982 C98.5696,8.5402 98.3536,8.4612 98.1676,8.3612 L98.3696,7.7422 C98.5126,7.8232 98.6856,7.8882 98.8886,7.9382 C99.0906,7.9882 99.2906,8.0132 99.4876,8.0132 C99.8756,8.0132 100.1586,7.9242 100.3356,7.7472 C100.5126,7.5712 100.6016,7.3022 100.6016,6.9402 L100.6016,6.4462 C100.4576,6.6292 100.2866,6.7672 100.0866,6.8612 C99.8866,6.9542 99.6576,7.0002 99.3986,7.0002 C98.8616,7.0002 98.4386,6.8062 98.1306,6.4172 C97.8226,6.0292 97.6696,5.5202 97.6696,4.8912 L97.6696,4.8062 Z" id="Fill-47"></path>
                <path d="M104.2537,3.0811 C103.9867,3.0811 103.7587,3.1931 103.5697,3.4181 C103.3807,3.6431 103.2647,3.9241 103.2217,4.2631 L103.2297,4.2841 L105.2497,4.2841 L105.2497,4.1791 C105.2497,3.8671 105.1667,3.6051 104.9987,3.3951 C104.8317,3.1861 104.5837,3.0811 104.2537,3.0811 M104.3757,7.0001 C103.7657,7.0001 103.2797,6.7971 102.9197,6.3911 C102.5597,5.9851 102.3787,5.4581 102.3787,4.8101 L102.3787,4.6321 C102.3787,4.0081 102.5657,3.4891 102.9367,3.0751 C103.3077,2.6611 103.7467,2.4531 104.2537,2.4531 C104.8457,2.4531 105.2917,2.6311 105.5947,2.9881 C105.8967,3.3441 106.0477,3.8191 106.0477,4.4131 L106.0477,4.9111 L103.2047,4.9111 L103.1927,4.9311 C103.2007,5.3511 103.3077,5.6971 103.5137,5.9671 C103.7187,6.2381 104.0057,6.3731 104.3757,6.3731 C104.6457,6.3731 104.8827,6.3341 105.0857,6.2571 C105.2897,6.1811 105.4657,6.0751 105.6147,5.9391 L105.9267,6.4581 C105.7697,6.6131 105.5637,6.7421 105.3067,6.8461 C105.0507,6.9491 104.7397,7.0001 104.3757,7.0001" id="Fill-48"></path>
                <path d="M109.615,4.7715 C109.615,5.2355 109.713,5.6185 109.909,5.9195 C110.104,6.2225 110.395,6.3735 110.781,6.3735 C111.162,6.3735 111.451,6.2225 111.648,5.9195 C111.844,5.6185 111.943,5.2355 111.943,4.7715 L111.943,4.6825 C111.943,4.2245 111.844,3.8425 111.646,3.5385 C111.447,3.2335 111.156,3.0815 110.773,3.0815 C110.392,3.0815 110.104,3.2335 109.909,3.5385 C109.713,3.8425 109.615,4.2245 109.615,4.6825 L109.615,4.7715 Z M108.817,4.6845 C108.817,4.0365 108.993,3.5025 109.344,3.0835 C109.695,2.6635 110.171,2.4535 110.773,2.4535 C111.381,2.4535 111.86,2.6625 112.213,3.0815 C112.565,3.4995 112.741,4.0335 112.741,4.6845 L112.741,4.7735 C112.741,5.4265 112.565,5.9615 112.215,6.3765 C111.864,6.7925 111.386,7.0005 110.781,7.0005 C110.177,7.0005 109.698,6.7925 109.345,6.3755 C108.994,5.9585 108.817,5.4235 108.817,4.7735 L108.817,4.6845 Z" id="Fill-49"></path>
                <path d="M116.4988,6.2676 C116.3608,6.5026 116.1838,6.6836 115.9678,6.8096 C115.7518,6.9366 115.5028,7.0006 115.2188,7.0006 C114.7408,7.0006 114.3688,6.8486 114.1018,6.5426 C113.8338,6.2376 113.6998,5.7626 113.6998,5.1176 L113.6998,2.5346 L114.4978,2.5346 L114.4978,5.1256 C114.4978,5.5926 114.5668,5.9136 114.7048,6.0896 C114.8428,6.2656 115.0568,6.3526 115.3488,6.3526 C115.6318,6.3526 115.8658,6.2956 116.0508,6.1806 C116.2358,6.0656 116.3758,5.9036 116.4708,5.6926 L116.4708,2.5346 L117.2678,2.5346 L117.2678,6.9156 L116.5508,6.9156 L116.4988,6.2676 Z" id="Fill-50"></path>
                <path d="M119.4832,1.4776 L119.4832,2.5346 L120.3132,2.5346 L120.3132,3.1256 L119.4832,3.1256 L119.4832,5.7856 C119.4832,5.9906 119.5262,6.1356 119.6112,6.2196 C119.6962,6.3026 119.8082,6.3446 119.9492,6.3446 C119.9952,6.3446 120.0452,6.3396 120.1002,6.3286 C120.1562,6.3176 120.2052,6.3046 120.2492,6.2886 L120.3542,6.8346 C120.2952,6.8836 120.2082,6.9226 120.0922,6.9546 C119.9782,6.9846 119.8622,7.0006 119.7472,7.0006 C119.4222,7.0006 119.1652,6.9026 118.9732,6.7066 C118.7812,6.5116 118.6852,6.2046 118.6852,5.7856 L118.6852,3.1256 L117.9892,3.1256 L117.9892,2.5346 L118.6852,2.5346 L118.6852,1.4776 L119.4832,1.4776 Z" id="Fill-51"></path>
                <path d="M123.9695,4.7715 C123.9695,5.2355 124.0675,5.6185 124.2635,5.9195 C124.4585,6.2225 124.7495,6.3735 125.1355,6.3735 C125.5165,6.3735 125.8055,6.2225 126.0025,5.9195 C126.1985,5.6185 126.2975,5.2355 126.2975,4.7715 L126.2975,4.6825 C126.2975,4.2245 126.1985,3.8425 126.0005,3.5385 C125.8015,3.2335 125.5105,3.0815 125.1275,3.0815 C124.7465,3.0815 124.4585,3.2335 124.2635,3.5385 C124.0675,3.8425 123.9695,4.2245 123.9695,4.6825 L123.9695,4.7715 Z M123.1715,4.6845 C123.1715,4.0365 123.3475,3.5025 123.6985,3.0835 C124.0495,2.6635 124.5255,2.4535 125.1275,2.4535 C125.7355,2.4535 126.2145,2.6625 126.5675,3.0815 C126.9195,3.4995 127.0955,4.0335 127.0955,4.6845 L127.0955,4.7735 C127.0955,5.4265 126.9195,5.9615 126.5695,6.3765 C126.2185,6.7925 125.7405,7.0005 125.1355,7.0005 C124.5315,7.0005 124.0525,6.7925 123.6995,6.3755 C123.3485,5.9585 123.1715,5.4235 123.1715,4.7735 L123.1715,4.6845 Z" id="Fill-52"></path>
                <path d="M128.4031,6.9156 L128.4031,3.1256 L127.7181,3.1256 L127.7181,2.5346 L128.4031,2.5346 L128.4031,1.9796 C128.4031,1.5126 128.5251,1.1516 128.7691,0.8966 C129.0131,0.6416 129.3541,0.5136 129.7921,0.5136 C129.8831,0.5136 129.9761,0.5206 130.0691,0.5366 C130.1631,0.5506 130.2651,0.5716 130.3791,0.5986 L130.2821,1.2066 C130.2331,1.1956 130.1741,1.1866 130.1061,1.1776 C130.0371,1.1696 129.9651,1.1656 129.8891,1.1656 C129.6571,1.1656 129.4841,1.2346 129.3711,1.3736 C129.2571,1.5136 129.2011,1.7146 129.2011,1.9796 L129.2011,2.5346 L130.1121,2.5346 L130.1121,3.1256 L129.2011,3.1256 L129.2011,6.9156 L128.4031,6.9156 Z" id="Fill-53"></path>
                <path d="M134.0476,1.4776 L134.0476,2.5346 L134.8776,2.5346 L134.8776,3.1256 L134.0476,3.1256 L134.0476,5.7856 C134.0476,5.9906 134.0906,6.1356 134.1756,6.2196 C134.2606,6.3026 134.3726,6.3446 134.5136,6.3446 C134.5596,6.3446 134.6096,6.3396 134.6646,6.3286 C134.7206,6.3176 134.7696,6.3046 134.8136,6.2886 L134.9186,6.8346 C134.8596,6.8836 134.7726,6.9226 134.6566,6.9546 C134.5426,6.9846 134.4266,7.0006 134.3116,7.0006 C133.9866,7.0006 133.7296,6.9026 133.5376,6.7066 C133.3456,6.5116 133.2496,6.2046 133.2496,5.7856 L133.2496,3.1256 L132.5536,3.1256 L132.5536,2.5346 L133.2496,2.5346 L133.2496,1.4776 L134.0476,1.4776 Z" id="Fill-54"></path>
                <path d="M136.6599,3.1216 C136.8109,2.9106 136.9969,2.7466 137.2169,2.6296 C137.4359,2.5116 137.6809,2.4536 137.9469,2.4536 C138.4149,2.4536 138.7779,2.5936 139.0389,2.8746 C139.2999,3.1556 139.4299,3.5866 139.4299,4.1696 L139.4299,6.9156 L138.6319,6.9156 L138.6319,4.1626 C138.6319,3.8006 138.5549,3.5336 138.3989,3.3606 C138.2439,3.1876 138.0129,3.1006 137.7049,3.1006 C137.4829,3.1006 137.2829,3.1536 137.1029,3.2566 C136.9239,3.3606 136.7759,3.5016 136.6599,3.6806 L136.6599,6.9156 L135.8619,6.9156 L135.8619,0.5986 L136.6599,0.5986 L136.6599,3.1216 Z" id="Fill-55"></path>
                <path d="M142.2722,3.0811 C142.0052,3.0811 141.7772,3.1931 141.5882,3.4181 C141.3992,3.6431 141.2832,3.9241 141.2402,4.2631 L141.2482,4.2841 L143.2682,4.2841 L143.2682,4.1791 C143.2682,3.8671 143.1852,3.6051 143.0172,3.3951 C142.8502,3.1861 142.6022,3.0811 142.2722,3.0811 M142.3942,7.0001 C141.7842,7.0001 141.2982,6.7971 140.9382,6.3911 C140.5782,5.9851 140.3972,5.4581 140.3972,4.8101 L140.3972,4.6321 C140.3972,4.0081 140.5842,3.4891 140.9552,3.0751 C141.3262,2.6611 141.7652,2.4531 142.2722,2.4531 C142.8642,2.4531 143.3102,2.6311 143.6132,2.9881 C143.9152,3.3441 144.0662,3.8191 144.0662,4.4131 L144.0662,4.9111 L141.2232,4.9111 L141.2112,4.9311 C141.2192,5.3511 141.3262,5.6971 141.5322,5.9671 C141.7372,6.2381 142.0242,6.3731 142.3942,6.3731 C142.6642,6.3731 142.9012,6.3341 143.1042,6.2571 C143.3082,6.1811 143.4842,6.0751 143.6332,5.9391 L143.9452,6.4581 C143.7882,6.6131 143.5822,6.7421 143.3252,6.8461 C143.0692,6.9491 142.7582,7.0001 142.3942,7.0001" id="Fill-56"></path>
                <path d="M147.9695,4.1539 L147.9695,6.2879 L149.3505,6.2879 C149.7125,6.2879 149.9935,6.1989 150.1975,6.0199 C150.3995,5.8409 150.5005,5.5879 150.5005,5.2589 C150.5005,4.9149 150.4155,4.6449 150.2475,4.4479 C150.0785,4.2519 149.8195,4.1539 149.4675,4.1539 L147.9695,4.1539 Z M147.9695,3.5269 L149.2615,3.5269 C149.5585,3.5269 149.7995,3.4449 149.9865,3.2809 C150.1725,3.1179 150.2655,2.8909 150.2655,2.5989 C150.2655,2.2799 150.1645,2.0419 149.9635,1.8839 C149.7625,1.7269 149.4735,1.6479 149.0955,1.6479 L147.9695,1.6479 L147.9695,3.5269 Z M147.1715,6.9159 L147.1715,1.0199 L149.0955,1.0199 C149.7105,1.0199 150.1935,1.1529 150.5405,1.4189 C150.8895,1.6849 151.0635,2.0839 151.0635,2.6149 C151.0635,2.8769 150.9795,3.1119 150.8125,3.3179 C150.6455,3.5249 150.4245,3.6779 150.1525,3.7779 C150.5085,3.8529 150.7885,4.0269 150.9925,4.2999 C151.1965,4.5719 151.2985,4.8899 151.2985,5.2519 C151.2985,5.7909 151.1235,6.2039 150.7745,6.4879 C150.4245,6.7729 149.9495,6.9159 149.3505,6.9159 L147.1715,6.9159 Z" id="Fill-57"></path>
                <path d="M152.9333,4.7715 C152.9333,5.2355 153.0313,5.6185 153.2273,5.9195 C153.4223,6.2225 153.7133,6.3735 154.0993,6.3735 C154.4803,6.3735 154.7693,6.2225 154.9663,5.9195 C155.1623,5.6185 155.2613,5.2355 155.2613,4.7715 L155.2613,4.6825 C155.2613,4.2245 155.1623,3.8425 154.9643,3.5385 C154.7653,3.2335 154.4743,3.0815 154.0913,3.0815 C153.7103,3.0815 153.4223,3.2335 153.2273,3.5385 C153.0313,3.8425 152.9333,4.2245 152.9333,4.6825 L152.9333,4.7715 Z M152.1353,4.6845 C152.1353,4.0365 152.3113,3.5025 152.6623,3.0835 C153.0133,2.6635 153.4893,2.4535 154.0913,2.4535 C154.6993,2.4535 155.1783,2.6625 155.5313,3.0815 C155.8833,3.4995 156.0593,4.0335 156.0593,4.6845 L156.0593,4.7735 C156.0593,5.4265 155.8833,5.9615 155.5333,6.3765 C155.1823,6.7925 154.7043,7.0005 154.0993,7.0005 C153.4953,7.0005 153.0163,6.7925 152.6633,6.3755 C152.3123,5.9585 152.1353,5.4235 152.1353,4.7735 L152.1353,4.6845 Z" id="Fill-58"></path>
                <polygon id="Fill-59" points="158.4373 4.15 159.3683 2.534 160.2993 2.534 158.8783 4.701 160.3403 6.916 159.4243 6.916 158.4533 5.259 157.4813 6.916 156.5583 6.916 158.0203 4.701 156.5983 2.534 157.5173 2.534"></polygon>
            </g>
        </g>
    </g>
</svg>