<?xml version="1.0" encoding="UTF-8"?>
<svg width="212px" height="51px" viewBox="0 0 212 51" version="1.1" xmlns="http://www.w3.org/2000/svg" xmlns:xlink="http://www.w3.org/1999/xlink">
    <!-- Generator: Sketch 48.2 (47327) - http://www.bohemiancoding.com/sketch -->
    <title>Logo Copy</title>
    <desc>Created with Sketch.</desc>
    <defs></defs>
    <g id="Artboard" stroke="none" stroke-width="1" fill="none" fill-rule="evenodd" transform="translate(-45.000000, -89.000000)">
        <g id="Logo-Copy" transform="translate(45.000000, 89.000000)" fill="#FFFFFF">
            <g id="bm">
                <path d="M20.1453,2.0596 C20.1793,2.0596 20.2143,2.0616 20.2483,2.0646 L20.1733,2.0266 L20.1073,2.0596 C20.1203,2.0596 20.1323,2.0596 20.1453,2.0596 Z M2.0003,11.1446 C2.0003,11.1446 2.0013,11.1456 2.0013,11.1466 C2.0013,11.1456 2.0003,11.1446 2.0003,11.1446 Z M2.0013,11.1476 L2.0013,11.1486 L2.0013,11.1476 Z M37.3313,12.0576 C37.4953,12.0576 37.6593,12.0986 37.8093,12.1796 C37.9963,12.2806 38.1423,12.4376 38.2313,12.6226 L38.2313,11.3436 L37.3693,10.8986 C37.4303,11.0196 37.4663,11.1536 37.4733,11.2936 C37.4893,11.5886 37.3733,11.8726 37.1633,12.0716 C37.2183,12.0626 37.2743,12.0576 37.3313,12.0576 Z M2.0113,11.3536 L2.0113,12.6236 C2.1013,12.4376 2.2473,12.2816 2.4353,12.1796 C2.6343,12.0716 2.8603,12.0356 3.0773,12.0716 C2.8673,11.8726 2.7513,11.5886 2.7673,11.2926 C2.7743,11.1556 2.8093,11.0226 2.8683,10.9036 L2.0123,11.3426 C2.0123,11.3466 2.0113,11.3506 2.0113,11.3536 Z M5.7703,11.4526 L20.1223,20.7406 L34.4723,11.4516 L20.1453,4.1806 L5.7703,11.4526 Z M19.9063,22.9086 C20.0053,23.0176 20.0783,23.1476 20.1213,23.2886 C20.1643,23.1476 20.2373,23.0176 20.3363,22.9096 C20.1943,22.9396 20.0483,22.9396 19.9063,22.9086 Z M37.3313,38.0716 L37.3403,38.0716 L37.3313,38.0716 Z M38.2313,38.5066 C38.2193,38.5316 38.2063,38.5566 38.1923,38.5806 L38.2313,38.5066 Z M2.0113,38.5576 L2.0513,38.5806 C2.0373,38.5566 2.0233,38.5316 2.0113,38.5056 L2.0113,38.5576 Z M3.9123,37.4856 L18.1653,45.4626 L18.1653,24.1236 L3.9123,14.8966 L3.9123,37.4856 Z M22.0783,24.1236 L22.0783,45.4626 L36.3313,37.4856 L36.3313,14.8966 L22.0783,24.1236 Z M20.1273,50.8656 L20.1153,50.8656 C20.0503,50.8656 19.9393,50.8536 19.8763,50.8416 C19.8213,50.8386 19.7263,50.8256 19.6313,50.8006 C19.5193,50.7716 19.4053,50.7256 19.2913,50.6726 C19.2433,50.6566 19.2463,50.6566 19.2113,50.6366 C19.1653,50.6166 19.1113,50.5886 19.0523,50.5506 L0.9513,40.2556 C0.3443,39.8646 0.0113,39.2526 0.0113,38.5886 L0.0113,11.3106 C0.0113,11.2916 0.0123,11.2716 0.0133,11.2526 C0.0193,11.1186 0.0383,11.0046 0.0623,10.8936 C0.0683,10.8346 0.0673,10.8436 0.0833,10.7866 C0.1303,10.6226 0.1963,10.4676 0.2813,10.3226 C0.3113,10.2716 0.3653,10.1976 0.4033,10.1526 C0.4213,10.1176 0.4993,10.0156 0.5923,9.9246 C0.6303,9.8866 0.7133,9.8186 0.7573,9.7876 C0.8103,9.7396 0.8843,9.6826 0.9673,9.6326 L19.2043,0.2476 C19.7663,-0.0874 20.5303,-0.0874 21.1443,0.2786 L39.1433,9.5636 C39.1803,9.5806 39.2163,9.5986 39.2493,9.6186 C39.2753,9.6346 39.3063,9.6546 39.3343,9.6756 C39.8973,10.0376 40.2313,10.6446 40.2313,11.3106 L40.2313,38.5886 C40.2313,39.2526 39.8983,39.8646 39.3413,40.2256 L21.1393,50.5816 C21.1153,50.5956 21.0793,50.6136 21.0443,50.6296 C20.9933,50.6586 20.9453,50.6786 20.9063,50.6926 C20.7963,50.7416 20.6993,50.7786 20.5973,50.8036 C20.5213,50.8246 20.4223,50.8386 20.3223,50.8476 C20.2883,50.8566 20.2083,50.8656 20.1273,50.8656 Z" id="Fill-3" fill-opacity="0.3"></path>
                <path d="M20.1434,50.8656 C20.1184,50.8656 20.0914,50.8646 20.0634,50.8626 C19.9134,50.8556 19.7704,50.8336 19.6314,50.7946 C19.5874,50.7836 19.4984,50.7506 19.4564,50.7336 C19.3814,50.7066 19.2904,50.6666 19.1994,50.6176 C19.1534,50.5946 19.1084,50.5696 19.0704,50.5446 L0.9334,40.1906 C-0.0166,39.5756 -0.2736,38.3656 0.3114,37.4636 C0.8964,36.5606 2.1074,36.3036 3.0094,36.8906 L20.1464,46.6346 L34.9714,38.3126 L18.9684,24.6306 L0.9174,12.9476 C0.3464,12.5776 0.0144,11.9516 0.0274,11.2726 C0.0404,10.5916 0.3974,9.9786 0.9834,9.6326 L19.2194,0.2476 C19.7824,-0.0874 20.5454,-0.0874 21.1594,0.2786 L39.2354,9.6066 C40.2114,10.1856 40.5164,11.3846 39.9674,12.3086 C39.7004,12.7566 39.2754,13.0736 38.7714,13.2026 C38.2654,13.3316 37.7404,13.2546 37.2934,12.9876 L20.1574,4.1826 L5.7854,11.4526 L21.1974,21.4266 C21.2724,21.4756 21.3424,21.5286 21.4074,21.5836 L39.5464,37.0916 C39.6664,37.1876 39.7924,37.3246 39.8984,37.4776 C39.9094,37.4936 39.9474,37.5526 39.9604,37.5726 C40.2004,37.9656 40.2934,38.4316 40.2224,38.8866 C40.2094,38.9716 40.1924,39.0526 40.1684,39.1316 C40.0404,39.5776 39.7544,39.9646 39.3654,40.2196 C39.3414,40.2356 39.3174,40.2496 39.2934,40.2626 L21.1544,50.5816 C21.1344,50.5926 21.1124,50.6046 21.0884,50.6166 C21.0024,50.6636 20.9044,50.7066 20.8014,50.7436 C20.7804,50.7506 20.6834,50.7876 20.6624,50.7936 C20.5114,50.8336 20.3654,50.8566 20.2204,50.8626 C20.1944,50.8646 20.1684,50.8656 20.1434,50.8656 Z" id="Fill-7"></path>
            </g>
            <g id="sm" transform="translate(44.000000, 10.000000)">
                <polygon id="Fill-9" points="16.2942 5.7271 10.6382 5.6651 10.6382 29.7681 6.1102 29.7681 6.1102 5.6651 0.4342 5.6651 0.4342 1.2821 16.2942 1.2821"></polygon>
                <path d="M31.9114,20.001 L28.2294,7.504 L24.7504,20.001 L31.9114,20.001 Z M39.3954,29.768 L34.7354,29.768 L33.1524,24.383 L23.5414,24.383 L22.0364,29.768 L17.3794,29.768 L25.1014,3.662 C25.6714,1.713 26.7774,0.74 28.4194,0.74 C29.9634,0.74 31.0344,1.734 31.6324,3.724 L39.3954,29.768 Z" id="Fill-11"></path>
                <path d="M47.7219,15.4937 C47.8749,14.6447 48.2779,14.0817 48.9319,13.8037 C49.1959,13.6787 49.9409,13.5317 51.1649,13.3647 C53.1399,13.0867 54.1279,11.8907 54.1279,9.7757 C54.1279,8.9547 53.9329,8.1967 53.5439,7.5007 C53.1129,6.7497 52.5459,6.2457 51.8429,5.9877 C51.1399,5.7307 49.7669,5.6017 47.7219,5.6017 L47.7219,15.4937 Z M58.6569,29.7677 L54.1279,29.7677 L54.1279,19.7507 C54.1279,19.0137 54.0659,18.5407 53.9409,18.3317 C53.7599,18.0257 53.3349,17.8727 52.6679,17.8727 L50.4969,17.8727 C48.9529,17.8727 48.0279,17.3297 47.7219,16.2447 L47.7219,29.7677 L43.1929,29.7677 L43.1929,5.7897 C43.1929,4.2037 43.5099,3.0557 44.1429,2.3467 C44.7759,1.6367 45.8709,1.2827 47.4299,1.2827 L50.1419,1.2827 C52.4379,1.2827 54.3509,1.9497 55.8809,3.2857 C57.7309,4.8997 58.6569,6.9587 58.6569,9.4627 C58.6569,12.0777 57.7179,13.9707 55.8399,15.1387 C57.7179,15.4177 58.6569,16.6977 58.6569,18.9787 L58.6569,29.7677 Z" id="Fill-13"></path>
                <polygon id="Fill-15" points="77.8142 5.7271 72.1592 5.6651 72.1592 29.7681 67.6302 29.7681 67.6302 5.6651 61.9542 5.6651 61.9542 1.2821 77.8142 1.2821"></polygon>
                <path d="M94.5085,29.7676 L85.6605,29.7676 C84.1295,29.7676 83.0445,29.4446 82.4045,28.7976 C81.7655,28.1506 81.4455,27.0616 81.4455,25.5316 L81.4455,5.7266 C81.4455,4.0436 81.8035,2.8826 82.5205,2.2426 C83.2365,1.6026 84.2205,1.2826 85.4725,1.2826 L94.5085,1.2826 L94.5085,5.6646 L85.9735,5.6646 L85.9735,12.8226 L93.7575,12.8226 L93.7575,17.2046 L85.9735,17.2046 L85.9735,25.3856 L94.5085,25.3856 L94.5085,29.7676 Z" id="Fill-17"></path>
                <path d="M104.4216,15.4937 C104.5746,14.6447 104.9786,14.0817 105.6326,13.8037 C105.8966,13.6787 106.6406,13.5317 107.8646,13.3647 C109.8406,13.0867 110.8286,11.8907 110.8286,9.7757 C110.8286,8.9547 110.6336,8.1967 110.2436,7.5007 C109.8136,6.7497 109.2456,6.2457 108.5436,5.9877 C107.8406,5.7307 106.4666,5.6017 104.4216,5.6017 L104.4216,15.4937 Z M115.3576,29.7677 L110.8286,29.7677 L110.8286,19.7507 C110.8286,19.0137 110.7666,18.5407 110.6406,18.3317 C110.4596,18.0257 110.0356,17.8727 109.3676,17.8727 L107.1966,17.8727 C105.6526,17.8727 104.7276,17.3297 104.4216,16.2447 L104.4216,29.7677 L99.8936,29.7677 L99.8936,5.7897 C99.8936,4.2037 100.2096,3.0557 100.8426,2.3467 C101.4766,1.6367 102.5706,1.2827 104.1296,1.2827 L106.8426,1.2827 C109.1386,1.2827 111.0506,1.9497 112.5816,3.2857 C114.4316,4.8997 115.3576,6.9587 115.3576,9.4627 C115.3576,12.0777 114.4176,13.9707 112.5396,15.1387 C114.4176,15.4177 115.3576,16.6977 115.3576,18.9787 L115.3576,29.7677 Z" id="Fill-19"></path>
                <path d="M140.5867,29.7676 L135.0157,29.7676 L126.8147,17.4756 C126.3137,16.7246 126.0627,16.0086 126.0627,15.3266 C126.0627,14.4776 126.3197,13.6436 126.8347,12.8226 L134.0137,1.2826 L139.1977,1.2826 L130.3437,15.1216 L140.5867,29.7676 Z M121.3677,29.7676 L125.8957,29.7676 L125.8957,1.2826 L121.3677,1.2826 L121.3677,29.7676 Z" id="Fill-21"></path>
                <polygon id="Fill-23" points="143.403 29.7677 147.931 29.7677 147.931 1.2827 143.403 1.2827"></polygon>
                <polygon id="Fill-25" points="167.4031 5.7271 161.7481 5.6651 161.7481 29.7681 157.2191 29.7681 157.2191 5.6651 151.5431 5.6651 151.5431 1.2821 167.4031 1.2821"></polygon>
            </g>
        </g>
    </g>
</svg>